<svg width="77" height="74" viewBox="0 0 77 74" fill="none" xmlns="http://www.w3.org/2000/svg">
<path d="M43.1199 61.6H55.4399V73.92H43.1199V61.6ZM64.6799 61.6H76.9999V73.92H64.6799V61.6ZM43.1199 40.04H55.4399V52.36H43.1199V40.04ZM64.6799 40.04H76.9999V52.36H64.6799V40.04Z" fill="#4859F0"/>
<path d="M77 21.56H58.52V9.24C58.52 4.004 54.516 0 49.28 0H30.8C25.564 0 21.56 4.004 21.56 9.24V21.56H3.08C1.232 21.56 0 22.792 0 24.64V25.256L5.852 62.524C6.16 65.604 8.932 67.76 12.012 67.76H36.96V61.6H12.012L6.776 27.72H77V21.56ZM27.72 9.24C27.72 7.392 28.952 6.16 30.8 6.16H49.28C51.128 6.16 52.36 7.392 52.36 9.24V21.56H27.72V9.24Z" fill="#4859F0"/>
</svg>
