<svg width="86" height="82" viewBox="0 0 86 82" fill="none" xmlns="http://www.w3.org/2000/svg">
<path d="M74.1053 35.1579C74.1053 26.8943 70.8226 18.9692 64.9793 13.1259C59.1361 7.2827 51.211 4 42.9474 4C34.6838 4 26.7586 7.2827 20.9154 13.1259C15.0722 18.9692 11.7895 26.8943 11.7895 35.1579" stroke="#4859F0" stroke-width="6.5" stroke-linecap="round" stroke-linejoin="round"/>
<path d="M74.1053 62.4211V64.3684C74.1053 66.4343 73.2846 68.4156 71.8238 69.8764C70.363 71.3372 68.3817 72.1579 66.3158 72.1579H52.6842M4 52.4427V45.1362C4.00026 43.3992 4.58111 41.7121 5.65022 40.3431C6.71933 38.9741 8.21536 38.0016 9.90053 37.5804L16.6774 35.8823C17.0217 35.7966 17.3811 35.7903 17.7282 35.8642C18.0753 35.938 18.4011 36.0899 18.6807 36.3084C18.9604 36.5268 19.1866 36.8061 19.3422 37.1251C19.4979 37.444 19.5788 37.7942 19.5789 38.1491V59.426C19.5796 59.7816 19.499 60.1327 19.3434 60.4525C19.1878 60.7723 18.9613 61.0523 18.6811 61.2713C18.4009 61.4903 18.0744 61.6424 17.7265 61.7161C17.3785 61.7898 17.0184 61.7832 16.6735 61.6966L9.89663 60.0024C8.21218 59.5805 6.71704 58.6077 5.64868 57.2388C4.58033 55.8698 4.00005 54.1831 4 52.4466V52.4427ZM81.8947 52.4427V45.1362C81.8945 43.3992 81.3136 41.7121 80.2445 40.3431C79.1754 38.9741 77.6794 38.0016 75.9942 37.5804L69.2174 35.8823C68.873 35.7966 68.5136 35.7903 68.1665 35.8642C67.8194 35.938 67.4937 36.0899 67.214 36.3084C66.9344 36.5268 66.7081 36.8061 66.5525 37.1251C66.3969 37.444 66.3159 37.7942 66.3158 38.1491V59.426C66.3153 59.7812 66.3958 60.1318 66.5512 60.4513C66.7066 60.7707 66.9327 61.0505 67.2125 61.2694C67.4922 61.4883 67.8182 61.6405 68.1656 61.7146C68.513 61.7886 68.8727 61.7825 69.2174 61.6966L75.9942 60.0024C77.6794 59.5812 79.1754 58.6088 80.2445 57.2398C81.3136 55.8707 81.8945 54.1837 81.8947 52.4466V52.4427Z" stroke="#4859F0" stroke-width="6.5"/>
<path d="M48.7895 78H37.1053C35.5558 78 34.0699 77.3845 32.9743 76.2889C31.8787 75.1933 31.2632 73.7073 31.2632 72.1579C31.2632 70.6085 31.8787 69.1225 32.9743 68.0269C34.0699 66.9313 35.5558 66.3158 37.1053 66.3158H48.7895C50.3389 66.3158 51.8249 66.9313 52.9205 68.0269C54.0161 69.1225 54.6316 70.6085 54.6316 72.1579C54.6316 73.7073 54.0161 75.1933 52.9205 76.2889C51.8249 77.3845 50.3389 78 48.7895 78Z" stroke="#4859F0" stroke-width="6.5"/>
</svg>
