<svg xmlns="http://www.w3.org/2000/svg" width="1277" height="1701" fill="none"><mask id="a" width="1277" height="1701" x="0" y="0" fill="#000" maskUnits="userSpaceOnUse"><path fill="#fff" d="M0 0h1277v1701H0z"/><path d="m878.5 1598.14-371.45 99.17c-26.46 7.07-53.91-8.72-61-35.09-7.1-26.37 8.75-53.73 35.21-60.79l371.45-99.18c26.47-7.06 53.92 8.73 61.01 35.1 7.1 26.37-8.76 53.72-35.22 60.79ZM706.52 460.69c-3.33 45.12-28.94 70.55-68.7 69.9-39.6-.63-68.41-27.67-67.46-68.84.92-40.06 26.13-66.38 69-65.91 42.86.46 64.1 25.69 67.16 64.85Zm476.2-152.07C1034.95 65.43 742.28-52.72 470.38 26.44 232.43 95.7 77.28 252.27 20.88 493.04-34.98 731.35 34.53 936.33 210.42 1108c41.25 40.26 79.18 89.02 102.44 141.06 23.31 52.16 30.79 68.47 87.57 54.78 78.87-19.02 156.69-42.38 235.54-61.46 40.42-9.79 55.78-32.28 55.51-72.88-1.08-163.89-.72-327.79-.12-491.68.13-37.1-11.57-67.64-51.62-68.57-40.55-.94-52.97 28.59-52.63 66.4.94 106.26.29 212.52.28 318.78 0 170.94 0 170.94-168.68 195.5-64.12-73.21-122.52-139.03-179.97-205.65-206.22-239.1-168.51-592.54 88.87-775.6 184.9-131.52 383.54-138.84 581.58-27.8C1093.07 284 1193.1 496.44 1166.6 701.95c-17.71 137.28-83.5 246.87-181.08 341.07-58.89 56.86-112.55 118.06-131.87 200.27-9.03 38.45-30.67 57.52-68.05 66.7 6.99-6.47-402.9 107.97-402.9 107.97-25.94 6.93-41.46 33.73-34.51 59.57l1.07 3.99c6.95 25.84 33.84 41.32 59.78 34.39 0 0 470.3-125.93 476.47-127.67 43.55-11.98 67.26-42.87 68.25-86.97 1.48-65.84 30.2-117.08 76.91-160.82 25.01-23.42 49.91-47.04 73.44-71.91 194.26-205.3 226.32-516.8 78.61-759.91Z"/></mask><path fill="#4859F0" d="m878.5 1598.14-371.45 99.17c-26.46 7.07-53.91-8.72-61-35.09-7.1-26.37 8.75-53.73 35.21-60.79l371.45-99.18c26.47-7.06 53.92 8.73 61.01 35.1 7.1 26.37-8.76 53.72-35.22 60.79ZM706.52 460.69c-3.33 45.12-28.94 70.55-68.7 69.9-39.6-.63-68.41-27.67-67.46-68.84.92-40.06 26.13-66.38 69-65.91 42.86.46 64.1 25.69 67.16 64.85Zm476.2-152.07C1034.95 65.43 742.28-52.72 470.38 26.44 232.43 95.7 77.28 252.27 20.88 493.04-34.98 731.35 34.53 936.33 210.42 1108c41.25 40.26 79.18 89.02 102.44 141.06 23.31 52.16 30.79 68.47 87.57 54.78 78.87-19.02 156.69-42.38 235.54-61.46 40.42-9.79 55.78-32.28 55.51-72.88-1.08-163.89-.72-327.79-.12-491.68.13-37.1-11.57-67.64-51.62-68.57-40.55-.94-52.97 28.59-52.63 66.4.94 106.26.29 212.52.28 318.78 0 170.94 0 170.94-168.68 195.5-64.12-73.21-122.52-139.03-179.97-205.65-206.22-239.1-168.51-592.54 88.87-775.6 184.9-131.52 383.54-138.84 581.58-27.8C1093.07 284 1193.1 496.44 1166.6 701.95c-17.71 137.28-83.5 246.87-181.08 341.07-58.89 56.86-112.55 118.06-131.87 200.27-9.03 38.45-30.67 57.52-68.05 66.7 6.99-6.47-402.9 107.97-402.9 107.97-25.94 6.93-41.46 33.73-34.51 59.57l1.07 3.99c6.95 25.84 33.84 41.32 59.78 34.39 0 0 470.3-125.93 476.47-127.67 43.55-11.98 67.26-42.87 68.25-86.97 1.48-65.84 30.2-117.08 76.91-160.82 25.01-23.42 49.91-47.04 73.44-71.91 194.26-205.3 226.32-516.8 78.61-759.91Z"/><path stroke="#4859F0" stroke-width="2.4" d="m878.5 1598.14-371.45 99.17c-26.46 7.07-53.91-8.72-61-35.09-7.1-26.37 8.75-53.73 35.21-60.79l371.45-99.18c26.47-7.06 53.92 8.73 61.01 35.1 7.1 26.37-8.76 53.72-35.22 60.79ZM706.52 460.69c-3.33 45.12-28.94 70.55-68.7 69.9-39.6-.63-68.41-27.67-67.46-68.84.92-40.06 26.13-66.38 69-65.91 42.86.46 64.1 25.69 67.16 64.85Zm476.2-152.07C1034.95 65.43 742.28-52.72 470.38 26.44 232.43 95.7 77.28 252.27 20.88 493.04-34.98 731.35 34.53 936.33 210.42 1108c41.25 40.26 79.18 89.02 102.44 141.06 23.31 52.16 30.79 68.47 87.57 54.78 78.87-19.02 156.69-42.38 235.54-61.46 40.42-9.79 55.78-32.28 55.51-72.88-1.08-163.89-.72-327.79-.12-491.68.13-37.1-11.57-67.64-51.62-68.57-40.55-.94-52.97 28.59-52.63 66.4.94 106.26.29 212.52.28 318.78 0 170.94 0 170.94-168.68 195.5-64.12-73.21-122.52-139.03-179.97-205.65-206.22-239.1-168.51-592.54 88.87-775.6 184.9-131.52 383.54-138.84 581.58-27.8C1093.07 284 1193.1 496.44 1166.6 701.95c-17.71 137.28-83.5 246.87-181.08 341.07-58.89 56.86-112.55 118.06-131.87 200.27-9.03 38.45-30.67 57.52-68.05 66.7 6.99-6.47-402.9 107.97-402.9 107.97-25.94 6.93-41.46 33.73-34.51 59.57l1.07 3.99c6.95 25.84 33.84 41.32 59.78 34.39 0 0 470.3-125.93 476.47-127.67 43.55-11.98 67.26-42.87 68.25-86.97 1.48-65.84 30.2-117.08 76.91-160.82 25.01-23.42 49.91-47.04 73.44-71.91 194.26-205.3 226.32-516.8 78.61-759.91Z" mask="url(#a)"/></svg>