<svg width="16" height="16" viewBox="0 0 16 16" fill="none" xmlns="http://www.w3.org/2000/svg">
<g clip-path="url(#clip0_1_445)">
<path d="M3 15.0214C2.99983 14.8929 3.02661 14.7656 3.07881 14.6468C3.13101 14.5281 3.20761 14.4202 3.30418 14.3294L9.49293 8.49721L3.30419 2.66497C3.11205 2.48094 3.00487 2.23281 3.00599 1.97465C3.0071 1.71648 3.11643 1.46919 3.31014 1.28663C3.50386 1.10408 3.76627 1.00106 4.04022 1.00001C4.31417 0.998956 4.57747 1.09996 4.77275 1.28102L11.6959 7.80523C11.8906 7.98876 12 8.23767 12 8.49721C12 8.75674 11.8906 9.00565 11.6959 9.18918L4.77275 15.7134C4.62752 15.8502 4.44248 15.9434 4.24105 15.9812C4.03961 16.019 3.83082 15.9996 3.64107 15.9255C3.45132 15.8514 3.28914 15.726 3.17503 15.5651C3.06092 15.4042 3.00001 15.215 3 15.0214Z" fill="#212121"/>
</g>
<defs>
<clipPath id="clip0_1_445">
<rect width="16" height="16" fill="white" transform="translate(0 16) rotate(-90)"/>
</clipPath>
</defs>
</svg>
