<svg width="16" height="16" viewBox="0 0 16 16" fill="none" xmlns="http://www.w3.org/2000/svg">
<g clip-path="url(#clip0_1_438)">
<path d="M13 0.978586C13.0002 1.10713 12.9734 1.23443 12.9212 1.35318C12.869 1.47193 12.7924 1.57979 12.6958 1.67056L6.50707 7.50279L12.6958 13.335C12.8879 13.5191 12.9951 13.7672 12.994 14.0254C12.9929 14.2835 12.8836 14.5308 12.6899 14.7134C12.4961 14.8959 12.2337 14.9989 11.9598 15C11.6858 15.001 11.4225 14.9 11.2272 14.719L4.30414 8.19477C4.1094 8.01124 4 7.76233 4 7.50279C4 7.24326 4.1094 6.99435 4.30414 6.81082L11.2272 0.286612C11.3725 0.149757 11.5575 0.0565592 11.759 0.0188023C11.9604 -0.0189546 12.1692 0.000425002 12.3589 0.0744912C12.5487 0.148558 12.7109 0.273986 12.825 0.434911C12.9391 0.595838 13 0.785038 13 0.978586Z" fill="#212121"/>
</g>
<defs>
<clipPath id="clip0_1_438">
<rect width="16" height="16" fill="white" transform="translate(16) rotate(90)"/>
</clipPath>
</defs>
</svg>
