<svg width="18" height="27" viewBox="0 0 18 27" fill="none" xmlns="http://www.w3.org/2000/svg">
<path d="M7.6429 26.9846C7.52392 27.0051 7.402 27.0051 7.28301 26.9846C7.02333 26.9102 6.79636 26.7573 6.63665 26.5491C6.47694 26.341 6.39324 26.089 6.39827 25.8316V25.675L7.74787 16.6362H1.23981C1.02034 16.6364 0.805025 16.5795 0.617299 16.4715C0.429574 16.3636 0.276634 16.2089 0.17513 16.0242C0.0604538 15.8386 0 15.6273 0 15.4121C0 15.1969 0.0604538 14.9856 0.17513 14.8L3.17424 9.83224L9.3224 0.551472C9.45903 0.332492 9.66987 0.163983 9.92047 0.0734885C10.1711 -0.0170061 10.4466 -0.0241338 10.702 0.0532708C10.9617 0.127681 11.1886 0.280586 11.3484 0.488716C11.5081 0.696846 11.5918 0.948805 11.5867 1.20625V1.36283L10.2371 10.4016H16.7602C16.9797 10.4014 17.195 10.4584 17.3827 10.5663C17.5704 10.6742 17.7234 10.829 17.8249 11.0137C17.9395 11.1993 18 11.4106 18 11.6258C18 11.8409 17.9395 12.0522 17.8249 12.2378L14.8258 17.2056L8.6776 26.4864C8.56461 26.6467 8.4101 26.7767 8.2289 26.8639C8.0477 26.9512 7.8459 26.9927 7.6429 26.9846ZM2.90432 14.4442H8.90253C9.06795 14.446 9.23136 14.4788 9.38344 14.5406C9.53551 14.6024 9.67327 14.692 9.78885 14.8044C9.90443 14.9168 9.99556 15.0496 10.057 15.1954C10.1185 15.3412 10.1491 15.497 10.1472 15.6541V15.8106L9.26242 21.7037L13.0113 16.0099L15.1707 12.4798H9.17245C9.00703 12.478 8.84361 12.4452 8.69154 12.3834C8.53946 12.3216 8.4017 12.2319 8.28613 12.1196C8.17055 12.0072 8.07942 11.8744 8.01794 11.7286C7.95646 11.5828 7.92584 11.4269 7.92782 11.2699V11.1133L8.81256 5.22032L5.06367 10.914L2.90432 14.4442Z" fill="#9B9591"/>
</svg>
