<svg width="30" height="30" viewBox="0 0 30 30" fill="none" xmlns="http://www.w3.org/2000/svg">
<path d="M9.42268 27.8877C10.1117 27.8877 10.6702 27.3292 10.6702 26.6402C10.6702 25.9512 10.1117 25.3927 9.42268 25.3927C8.7337 25.3927 8.17517 25.9512 8.17517 26.6402C8.17517 27.3292 8.7337 27.8877 9.42268 27.8877Z" stroke="#9B9591" stroke-width="2.5" stroke-linecap="round" stroke-linejoin="round"/>
<path d="M23.1452 27.8877C23.8342 27.8877 24.3927 27.3292 24.3927 26.6402C24.3927 25.9512 23.8342 25.3927 23.1452 25.3927C22.4562 25.3927 21.8977 25.9512 21.8977 26.6402C21.8977 27.3292 22.4562 27.8877 23.1452 27.8877Z" stroke="#9B9591" stroke-width="2.5" stroke-linecap="round" stroke-linejoin="round"/>
<path d="M2 3H4.49501L7.81337 18.494C7.9351 19.0615 8.25084 19.5687 8.70623 19.9285C9.16162 20.2882 9.72818 20.478 10.3084 20.4651H22.509C23.0768 20.4642 23.6273 20.2696 24.0696 19.9135C24.5119 19.5574 24.8195 19.061 24.9416 18.5065L27 9.23752H5.82984" stroke="#9B9591" stroke-width="2.5" stroke-linecap="round" stroke-linejoin="round"/>
</svg>
