<svg width="30" height="30" viewBox="0 0 30 30" fill="none" xmlns="http://www.w3.org/2000/svg">
<path d="M25.9167 10.3571H17.5833V2.07143H5.08333V26.9286H25.9167V10.3571ZM25.0542 8.28572L19.6667 2.929V8.28572H25.0542ZM4.04167 0H19.6667L28 8.28572V27.9643C28 28.239 27.8903 28.5024 27.6949 28.6966C27.4996 28.8909 27.2346 29 26.9583 29H4.04167C3.7654 29 3.50045 28.8909 3.3051 28.6966C3.10975 28.5024 3 28.239 3 27.9643V1.03571C3 0.761026 3.10975 0.497588 3.3051 0.303354C3.50045 0.10912 3.7654 0 4.04167 0ZM9.25 14.5H21.75V16.5714H9.25V14.5ZM9.25 8.28572H14.4583V10.3571H9.25V8.28572ZM9.25 20.7143H21.75V22.7857H9.25V20.7143Z" fill="#9B9591"/>
</svg>
